<svg clip-rule="evenodd" fill-rule="evenodd" height="512" image-rendering="optimizeQuality" shape-rendering="geometricPrecision" text-rendering="geometricPrecision" viewBox="0 0 1707 1707" width="512" xmlns="http://www.w3.org/2000/svg" id="fi_7083971"><g id="Layer_x0020_1"><path d="m14 1139c-9-6-14-15-14-25v-542c0-10 5-20 14-25l825-523c11-6 23-6 33 1l820 530c9 6 15 15 15 26v541c-1 11-6 20-15 26l-845 534c-10 7-24 7-34 0zm811-565v-470l-740 469 358 244zm60-469v469l369 239 367-233zm-84 1496v-469l-359-244-357 227zm60-469v471l760-481-368-238zm786-497-338 214 338 218zm-1259 217-328-223v430zm810-4-343-222-358 227 334 227z" fill="#006ea7" fill-rule="nonzero"></path><g fill="#59aae7"><path d="m497 853 334 227 367-232-343-222z"></path><path d="m885 574 369 239 367-233-736-475z"></path><path d="m443 817 382-243v-470l-740 469z"></path><path d="m388 852-328-223v430z"></path><path d="m442 888-357 227 716 486v-469z"></path><path d="m861 1132v471l760-481-368-238z"></path><path d="m1309 849 338 218v-432z"></path></g></g></svg>