<svg enable-background="new 0 0 32 32" viewBox="0 0 32 32" xmlns="http://www.w3.org/2000/svg"><g id="Guides"/><g id="_x32_0"/><g id="_x31_9"/><g id="_x31_8"/><g id="_x31_7"/><g id="_x31_6"/><g id="_x31_5"><circle cx="6" cy="18" r="2"/><path d="m14 20c-.3281 0-.6436-.1621-.832-.4453l-2.168-3.252v2.6973c0 .5527-.4473 1-1 1s-1-.4473-1-1v-6c0-.4404.2881-.8291.71-.957.4199-.1299.8779.0352 1.1221.4023l2.1679 3.252v-2.6973c0-.5527.4473-1 1-1s1 .4473 1 1v6c0 .4404-.2881.8291-.71.957-.0957.0293-.1933.043-.29.043z"/><path d="m20 20h-3c-.5527 0-1-.4473-1-1v-6c0-.5527.4473-1 1-1h3c.5527 0 1 .4473 1 1s-.4473 1-1 1h-2v4h2c.5527 0 1 .4473 1 1s-.4473 1-1 1z"/><path d="m20 17h-3c-.5527 0-1-.4473-1-1s.4473-1 1-1h3c.5527 0 1 .4473 1 1s-.4473 1-1 1z"/><path d="m27 14h-4c-.5527 0-1-.4473-1-1s.4473-1 1-1h4c.5527 0 1 .4473 1 1s-.4473 1-1 1z"/><path d="m25 20c-.5527 0-1-.4473-1-1v-6c0-.5527.4473-1 1-1s1 .4473 1 1v6c0 .5527-.4473 1-1 1z"/></g><g id="_x31_4"/><g id="_x31_3"/><g id="_x31_2"/><g id="_x31_1"/><g id="_x31_0"/><g id="_x30_9"/><g id="_x30_8"/><g id="_x30_7"/><g id="_x30_6"/><g id="_x30_5"/><g id="_x30_4"/><g id="_x30_3"/><g id="_x30_2"/><g id="_x30_1"/></svg>