<svg viewBox="1 -4 511.99988 511" xmlns="http://www.w3.org/2000/svg"><path d="m397.074219 93.652344c-.375-32.734375-6.601563-64.070313-17.65625-93.003906-.636719-.09375-1.285157-.148438-1.933594-.148438h-242.96875c-4.652344 0-8.964844 2.492188-11.285156 6.519531l-121.488281 210.511719c-2.324219 4.039062-2.324219 9.011719 0 13.050781l75.617187 131.027344c13.402344 2.542969 27.144531 4.089844 41.171875 4.5625 3.066406.105469 6.140625.15625 9.238281.15625 148.738281 0 269.328125-120.632813 269.328125-269.453125 0-1.078125-.011718-2.144531-.023437-3.222656zm0 0" fill="#707384"/><path d="m510.257812 230.582031-121.488281 210.511719c-2.320312 4.03125-6.632812 6.519531-11.285156 6.519531h-242.96875c-4.652344 0-8.964844-2.488281-11.285156-6.519531l-45.871094-79.484375c13.402344 2.542969 27.144531 4.09375 41.171875 4.5625l25.472656 44.144531c.910156 1.570313 2.582032 2.542969 4.402344 2.542969h212.035156c1.820313 0 3.496094-.972656 4.40625-2.542969l106.015625-183.710937c.910157-1.578125.910157-3.515625 0-5.097657l-73.789062-127.855468c-.375-32.734375-6.601563-64.070313-17.65625-93.003906 3.890625.585937 7.355469 2.90625 9.351562 6.371093l121.488281 210.511719c2.324219 4.039062 2.324219 9.011719 0 13.050781zm0 0" fill="#5b5c6c"/><path d="m470.863281 226.605469-106.015625 183.710937c-.910156 1.570313-2.585937 2.542969-4.40625 2.542969h-212.03125c-1.820312 0-3.496094-.972656-4.40625-2.542969l-25.46875-44.144531c3.0625.105469 6.136719.15625 9.234375.15625 148.738281 0 269.328125-120.632813 269.328125-269.453125 0-1.078125-.011718-2.144531-.019531-3.222656l73.785156 127.855468c.910157 1.582032.910157 3.515626 0 5.097657zm0 0" fill="#464655"/><path d="m397.097656 96.875c0 148.820312-120.589844 269.453125-269.328125 269.453125-3.097656 0-6.171875-.050781-9.238281-.15625l-80.542969-139.566406c-.910156-1.578125-.910156-3.515625 0-5.097657l106.015625-183.707031c.910156-1.570312 2.582032-2.542969 4.402344-2.542969h212.035156c1.820313 0 3.496094.972657 4.40625 2.542969l32.226563 55.851563c.011719 1.078125.023437 2.144531.023437 3.222656zm0 0" fill="#5b5c6c"/><path d="m332.960938 308.019531h-14.03125c-4.332032 0-7.84375-3.515625-7.84375-7.847656 0-4.335937 3.511718-7.851563 7.84375-7.851563h14.03125c3.320312 0 6.019531-2.703124 6.019531-6.023437v-26.75c0-3.320313-2.699219-6.023437-6.019531-6.023437h-14.03125c-4.332032 0-7.84375-3.515626-7.84375-7.847657 0-4.335937 3.511718-7.851562 7.84375-7.851562h14.03125c11.96875 0 21.710937 9.746093 21.710937 21.722656v26.75c0 11.976563-9.738281 21.722656-21.710937 21.722656zm0 0" fill="#ff9650"/><path d="m254.082031 208.175781c-2.902343 0-5.6875-1.617187-7.050781-4.398437-1.90625-3.890625-.296875-8.59375 3.59375-10.503906 39.355469-19.292969 39.023438-27.953126 39.007812-28.035157-.003906-.035156-1.222656-3.496093-15.332031-6.984375-11.355469-2.808594-26.835937-4.628906-41.808593-6.390625-36.878907-4.332031-68.730469-8.078125-72.570313-26.699219-3.523437-17.066406 18.746094-35.421874 74.457031-61.378906 3.929688-1.828125 8.59375-.125 10.421875 3.804688 1.832031 3.929687.128907 8.597656-3.800781 10.425781-67.449219 31.425781-65.816406 43.476563-65.710938 43.976563.007813.039062.976563 3.914062 16.34375 7.734374 11.707032 2.90625 27.457032 4.757813 42.691407 6.546876 37.734375 4.4375 67.539062 7.941406 70.765625 26.238281 2.417968 13.714843-12.25 27.550781-47.558594 44.859375-1.113281.542968-2.289062.804687-3.449219.804687zm0 0" fill="#fff"/><path d="m303.59375 135.613281c-.695312 0-1.40625-.09375-2.109375-.289062-11.917969-3.320313-24.121094-6.207031-36.269531-8.578125-12.050782-2.355469-24.34375-4.257813-36.53125-5.664063-4.304688-.496093-7.390625-4.386719-6.894532-8.695312.492188-4.304688 4.378907-7.398438 8.691407-6.898438 12.589843 1.449219 25.289062 3.417969 37.738281 5.851563 12.554688 2.449218 25.160156 5.433594 37.476562 8.863281 4.171876 1.160156 6.613282 5.488281 5.453126 9.664063-.96875 3.472656-4.121094 5.746093-7.554688 5.746093zm0 0" fill="#fff"/><path d="m272.1875 355.710938h-34.304688c-25.816406 0-46.742187-20.929688-46.742187-46.742188v-76.558594c0-1.34375 1.089844-2.433594 2.433594-2.433594h122.921875c1.347656 0 2.4375 1.089844 2.4375 2.433594v76.558594c-.003906 25.8125-20.929688 46.742188-46.746094 46.742188zm0 0" fill="#ffcd74"/><path d="m316.496094 229.976562h-27.804688c1.34375 0 2.433594 1.089844 2.433594 2.433594v76.546875c0 25.820313-20.925781 46.753907-46.734375 46.753907h27.808594c25.808593 0 46.730469-20.933594 46.730469-46.753907v-76.546875c0-1.34375-1.085938-2.433594-2.433594-2.433594zm0 0" fill="#ffb96a"/><path d="m227.238281 210.964844c-.179687 0-.355469-.007813-.53125-.019532-4.324219-.289062-7.59375-4.03125-7.304687-8.355468.445312-6.714844 2.53125-13.261719 6.027344-18.941406 5.417968-8.800782 12.808593-13.515626 18.054687-15.925782 3.941406-1.8125 8.59375-.078125 10.398437 3.859375 1.808594 3.941407.082032 8.601563-3.855468 10.40625-2.679688 1.230469-7.703125 4.152344-11.238282 9.894531-2.734374 4.4375-3.539062 8.839844-3.734374 11.753907-.273438 4.148437-3.722657 7.328125-7.816407 7.328125zm0 0" fill="#fff"/><path d="m400.027344 504.171875h-288.054688c-10.238281 0-18.542968-8.304687-18.542968-18.542969v-111.375c0-10.242187 8.304687-18.542968 18.542968-18.542968h288.054688c10.238281 0 18.539062 8.300781 18.539062 18.542968v111.375c.003906 10.238282-8.300781 18.542969-18.539062 18.542969zm0 0" fill="#a0dcf0"/><path d="m400.03125 355.710938h-31.351562c10.238281 0 18.535156 8.304687 18.535156 18.546874v111.367188c0 10.242188-8.296875 18.546875-18.535156 18.546875h31.351562c10.238281 0 18.535156-8.304687 18.535156-18.546875v-111.367188c0-10.242187-8.296875-18.546874-18.535156-18.546874zm0 0" fill="#78b9c8"/><g fill="#4a7fdd"><path d="m129.289062 451.1875c0-2.816406.585938-4.75 1.757813-5.804688 1.171875-1.058593 3.125-1.585937 5.863281-1.585937 4.765625 0 7.304688 1.605469 7.617188 4.808594.3125 8.367187 4.335937 12.550781 12.074218 12.550781 8.28125 0 12.425782-4.496094 12.425782-13.488281v-46.203125h-11.957032c-1.484374 0-2.65625-.664063-3.515624-1.996094-.859376-1.328125-1.289063-2.929688-1.289063-4.808594 0-1.796875.410156-3.339844 1.230469-4.632812.820312-1.289063 2.011718-1.933594 3.574218-1.933594h20.511719c1.796875 0 3.359375.429688 4.691407 1.289062 1.324218.863282 1.992187 2.035157 1.992187 3.519532v54.765625c0 9.226562-2.484375 16.007812-7.445313 20.347656-4.964843 4.335937-11.46875 6.507813-19.515624 6.507813-8.285157 0-15.023438-2.089844-20.21875-6.273438-5.199219-4.183594-7.796876-9.871094-7.796876-17.0625zm0 0"/><path d="m190.191406 467.050781c0-.164062.078125-.585937.234375-1.253906l22.644531-73.757813c.46875-1.476562 1.621094-2.625 3.457032-3.433593 1.835937-.808594 3.929687-1.214844 6.269531-1.214844 2.347656 0 4.457031.453125 6.332031 1.347656 1.875.902344 3.046875 2.171875 3.515625 3.8125l22.621094 73.765625c.15625.625.234375 1.015625.234375 1.171875 0 1.71875-1.050781 3.207031-3.164062 4.457031-2.109376 1.25-4.257813 1.875-6.445313 1.875-2.894531 0-4.613281-1.015624-5.160156-3.050781l-4.453125-15.597656h-25.113282l-4.367187 15.605469c-.617187 2.027344-2.554687 3.042968-5.808594 3.042968-2.554687 0-4.992187-.648437-7.316406-1.945312-2.324219-1.292969-3.480469-2.902344-3.480469-4.824219zm24.320313-23.839843h20.269531l-10.199219-36.003907zm0 0"/><path d="m254.945312 394.425781c0-1.796875 1.035157-3.300781 3.105469-4.515625 2.070313-1.210937 4.238281-1.816406 6.503907-1.816406 2.890624 0 4.609374 1.015625 5.160156 3.050781l17.933594 63.558594 17.816406-63.558594c.546875-2.035156 2.265625-3.050781 5.15625-3.050781 2.1875 0 4.339844.628906 6.449218 1.875 2.109376 1.253906 3.164063 2.738281 3.164063 4.457031 0 .15625-.078125.546875-.234375 1.171875l-22.503906 73.765625c-.46875 1.640625-1.644532 2.914063-3.519532 3.8125-1.875.894531-3.980468 1.347657-6.328124 1.347657-5.390626 0-8.671876-1.71875-9.84375-5.160157l-22.625-73.765625c-.15625-.625-.234376-1.015625-.234376-1.171875zm0 0"/><path d="m316.082031 467.050781c0-.164062.078125-.585937.234375-1.253906l22.644532-73.757813c.46875-1.476562 1.621093-2.625 3.457031-3.433593 1.835937-.808594 3.929687-1.214844 6.273437-1.214844s4.453125.453125 6.328125 1.347656c1.875.902344 3.046875 2.171875 3.515625 3.8125l22.625 73.765625c.15625.625.230469 1.015625.230469 1.171875 0 1.71875-1.050781 3.207031-3.164063 4.457031-2.109374 1.25-4.257812 1.875-6.445312 1.875-2.894531 0-4.613281-1.015624-5.160156-3.050781l-4.453125-15.597656h-25.113281l-4.367188 15.605469c-.617188 2.027344-2.554688 3.042968-5.808594 3.042968-2.554687 0-4.992187-.648437-7.316406-1.945312-2.320312-1.292969-3.480469-2.902344-3.480469-4.824219zm24.324219-23.839843h20.269531l-10.199219-36.003907zm0 0"/></g></svg>