<svg id="Variation" viewBox="0 0 64 64" xmlns="http://www.w3.org/2000/svg"><path d="m25.75 25.75v12.5h12.5v-12.5zm6.25 10c-2.07 0-3.75-1.68-3.75-3.75s1.68-3.75 3.75-3.75 3.75 1.68 3.75 3.75-1.68 3.75-3.75 3.75z" fill="#021e38"/><circle cx="32" cy="32" fill="#021e38" r="2.25"/><path d="m39 20.25h-14c-2.62 0-4.75 2.13-4.75 4.75v14c0 2.62 2.13 4.75 4.75 4.75h14c2.62 0 4.75-2.13 4.75-4.75v-14c0-2.62-2.13-4.75-4.75-4.75zm.75 18.75c0 .41-.34.75-.75.75h-14c-.41 0-.75-.34-.75-.75v-14c0-.41.34-.75.75-.75h14c.41 0 .75.34.75.75z" fill="#021e38"/><g fill="#5384bf"><path d="m42.6 10.15c-.19 0-.38-.07-.53-.22-2.7-2.7-6.27-4.18-10.07-4.18s-7.37 1.48-10.07 4.18c-.29.29-.77.29-1.06 0s-.29-.77 0-1.06c2.98-2.98 6.93-4.62 11.13-4.62s8.15 1.64 11.13 4.62c.29.29.29.77 0 1.06-.15.15-.34.22-.53.22z"/><path d="m39.78 12.97c-.19 0-.38-.07-.53-.22-1.95-1.94-4.52-3-7.25-3s-5.31 1.07-7.25 3c-.29.29-.77.29-1.06 0s-.29-.77 0-1.06c2.23-2.22 5.18-3.44 8.31-3.44s6.08 1.22 8.31 3.44c.29.29.29.77 0 1.06-.15.15-.34.22-.53.22z"/><path d="m27.05 15.8c-.19 0-.38-.07-.53-.22-.29-.29-.29-.77 0-1.06 1.46-1.46 3.41-2.27 5.48-2.27s4.02.81 5.48 2.27c.29.29.29.77 0 1.06s-.77.29-1.06 0c-1.18-1.18-2.75-1.83-4.42-1.83s-3.24.65-4.42 1.83c-.15.15-.34.22-.53.22z"/><path d="m32 59.75c-4.2 0-8.15-1.64-11.13-4.62-.29-.29-.29-.77 0-1.06s.77-.29 1.06 0c2.7 2.7 6.27 4.18 10.07 4.18s7.37-1.48 10.07-4.18c.29-.29.77-.29 1.06 0s.29.77 0 1.06c-2.98 2.98-6.93 4.62-11.13 4.62z"/><path d="m32 55.75c-3.13 0-6.08-1.22-8.31-3.44-.29-.29-.29-.77 0-1.06s.77-.29 1.06 0c1.95 1.94 4.52 3 7.25 3s5.31-1.07 7.25-3c.29-.29.77-.29 1.06 0s.29.77 0 1.06c-2.23 2.22-5.18 3.44-8.31 3.44z"/><path d="m32 51.75c-2.07 0-4.02-.81-5.48-2.27-.29-.29-.29-.77 0-1.06s.77-.29 1.06 0c1.18 1.18 2.75 1.83 4.42 1.83s3.24-.65 4.42-1.83c.29-.29.77-.29 1.06 0s.29.77 0 1.06c-1.46 1.46-3.41 2.27-5.48 2.27z"/><path d="m54.6 43.35c-.19 0-.38-.07-.53-.22-.29-.29-.29-.77 0-1.06 2.7-2.7 4.18-6.27 4.18-10.07s-1.48-7.37-4.18-10.07c-.29-.29-.29-.77 0-1.06s.77-.29 1.06 0c2.98 2.98 4.62 6.93 4.62 11.13s-1.64 8.15-4.62 11.13c-.15.15-.34.22-.53.22z"/><path d="m51.78 40.53c-.19 0-.38-.07-.53-.22-.29-.29-.29-.77 0-1.06 1.94-1.95 3-4.52 3-7.25s-1.07-5.3-3-7.25c-.29-.29-.29-.77 0-1.06s.77-.29 1.06 0c2.22 2.23 3.44 5.18 3.44 8.31s-1.22 6.08-3.44 8.31c-.15.15-.34.22-.53.22z"/><path d="m48.95 37.7c-.19 0-.38-.07-.53-.22-.29-.29-.29-.77 0-1.06 1.18-1.18 1.83-2.75 1.83-4.42s-.65-3.24-1.83-4.42c-.29-.29-.29-.77 0-1.06s.77-.29 1.06 0c1.46 1.46 2.27 3.41 2.27 5.48s-.81 4.02-2.27 5.48c-.15.15-.34.22-.53.22z"/><path d="m9.4 43.35c-.19 0-.38-.07-.53-.22-2.98-2.98-4.62-6.93-4.62-11.13s1.64-8.15 4.62-11.13c.29-.29.77-.29 1.06 0s.29.77 0 1.06c-2.7 2.7-4.18 6.27-4.18 10.07s1.48 7.37 4.18 10.07c.29.29.29.77 0 1.06-.15.15-.34.22-.53.22z"/><path d="m12.22 40.53c-.19 0-.39-.07-.53-.22-2.22-2.23-3.44-5.18-3.44-8.31s1.22-6.08 3.44-8.31c.29-.29.77-.29 1.06 0s.29.77 0 1.06c-1.94 1.95-3 4.52-3 7.25s1.07 5.31 3 7.25c.29.29.29.77 0 1.06-.15.15-.34.22-.53.22z"/><path d="m15.05 37.7c-.19 0-.38-.07-.53-.22-1.46-1.46-2.27-3.41-2.27-5.48s.81-4.02 2.27-5.48c.29-.29.77-.29 1.06 0s.29.77 0 1.06c-1.18 1.18-1.83 2.75-1.83 4.42s.65 3.24 1.83 4.42c.29.29.29.77 0 1.06-.15.15-.34.22-.53.22z"/></g></svg>