<svg id="Capa_1" enable-background="new 0 0 512 512" viewBox="0 0 512 512" xmlns="http://www.w3.org/2000/svg"><g><g fill="#a4e7ff"><path d="m177.808 396.641c-3.991-1.515-8.452.488-9.967 4.478l-11.388 29.967c-1.516 3.989.489 8.451 4.477 9.967.904.343 1.831.506 2.743.506 3.116 0 6.051-1.898 7.224-4.984l11.388-29.967c1.517-3.989-.488-8.451-4.477-9.967z"/><path d="m208.678 315.41c-3.987-1.515-8.451.488-9.967 4.478l-19.191 50.5c-1.516 3.989.489 8.451 4.478 9.967.903.343 1.83.506 2.743.506 3.116 0 6.051-1.898 7.224-4.984l19.191-50.5c1.516-3.99-.489-8.451-4.478-9.967z"/><path d="m98.766 293.638-59.771 42.67c-3.473 2.48-4.278 7.305-1.799 10.778 1.508 2.113 3.883 3.238 6.295 3.238 1.553 0 3.122-.468 4.483-1.439l59.771-42.67c3.473-2.48 4.278-7.305 1.799-10.778-2.481-3.473-7.306-4.277-10.778-1.799z"/><path d="m108.001 73.895-56.733-41.186c-3.455-2.508-8.286-1.739-10.792 1.713-2.507 3.454-1.74 8.285 1.713 10.792l56.733 41.186c1.371.995 2.959 1.475 4.533 1.475 2.39 0 4.747-1.107 6.259-3.188 2.507-3.454 1.74-8.284-1.713-10.792z"/><path d="m474.81 34.332c-2.483-3.471-7.308-4.273-10.78-1.788l-59.812 42.794c-3.47 2.483-4.271 7.309-1.788 10.78 1.509 2.109 3.881 3.231 6.29 3.231 1.556 0 3.127-.469 4.489-1.444l59.812-42.794c3.471-2.482 4.272-7.308 1.789-10.779z"/><path d="m394.521 322.031c-2.978-3.056-7.87-3.122-10.926-.144-3.057 2.978-3.121 7.869-.144 10.927l58.329 59.884c1.515 1.554 3.524 2.335 5.535 2.335 1.943 0 3.889-.728 5.39-2.191 3.057-2.978 3.121-7.869.144-10.927z"/></g><circle cx="23.978" cy="356.521" fill="#fbf198" r="23.978"/><circle cx="464.043" cy="404.478" fill="#4a66a0" r="23.978"/><circle cx="27.328" cy="24.881" fill="#4a66a0" r="23.978"/><circle cx="488.022" cy="24.881" fill="#fbf198" r="23.978"/><circle cx="149.374" cy="471.459" fill="#4a66a0" r="40.24"/><path d="m405.438 310.057c5.454-8.926 4.32-20.744-3.404-28.467l-18.927-18.927c-2.17-2.17-2.713-5.487-1.327-8.226 3.173-6.265 5.891-12.799 8.111-19.559.957-2.912 3.686-4.87 6.752-4.87h26.757c12.804 0 23.183-10.38 23.183-23.183v-31.882c0-12.803-10.379-23.183-23.183-23.183h-26.756c-3.065 0-5.795-1.958-6.752-4.871-2.221-6.76-4.939-13.293-8.112-19.558-1.387-2.739-.844-6.055 1.327-8.226l18.927-18.927c9.053-9.053 9.053-23.732 0-32.786l-22.544-22.542c-9.053-9.053-23.732-9.053-32.786 0l-18.927 18.927c-2.17 2.17-5.487 2.713-8.225 1.326-6.265-3.173-12.799-5.891-19.559-8.111-2.912-.957-4.87-3.686-4.87-6.752v-26.756c0-6.402-2.595-12.198-6.79-16.393l-.915.094c.177-.153.348-.312.525-.465-4.161-3.974-9.795-6.419-16.003-6.419h-31.882c-12.803 0-23.183 10.379-23.183 23.183v26.756c0 3.066-1.958 5.795-4.87 6.752-6.76 2.22-13.293 4.939-19.559 8.111-2.738 1.387-6.055.844-8.226-1.326l-18.926-18.927c-4.358-4.358-10.019-6.616-15.728-6.775l-25.395 28.404 25.203 118.736 72.275 113.56 94.872 11.492 57.27 17.723z" fill="#68a2df"/><path d="m372.933 312.357c-125.951 0-228.055-102.104-228.055-228.055 0-15.833 1.616-31.287 4.688-46.211-6.153-.175-12.361 2.062-17.057 6.758l-22.544 22.544c-9.053 9.054-9.053 23.732 0 32.786l18.927 18.927c2.17 2.17 2.713 5.487 1.326 8.225-3.172 6.265-5.891 12.798-8.111 19.558-.957 2.913-3.686 4.871-6.752 4.871h-26.756c-12.804 0-23.183 10.379-23.183 23.183v31.882c0 12.804 10.379 23.183 23.183 23.183h26.756c3.066 0 5.795 1.958 6.752 4.87 2.22 6.76 4.939 13.293 8.111 19.559 1.387 2.738.844 6.055-1.326 8.226l-18.927 18.927c-9.053 9.053-9.053 23.732 0 32.785l22.544 22.544c9.053 9.053 23.732 9.053 32.785 0l18.927-18.927c2.17-2.17 5.487-2.713 8.225-1.326 6.265 3.172 12.799 5.891 19.559 8.111 2.912.957 4.87 3.687 4.87 6.752v26.756c0 12.803 10.379 23.183 23.183 23.183h31.883c6.206 0 11.838-2.443 15.999-6.415l.009.001c4.421-4.221 7.175-10.174 7.175-16.769v-26.756c0-3.065 1.958-5.795 4.87-6.752 6.76-2.22 13.293-4.939 19.559-8.111 2.738-1.387 6.055-.844 8.225 1.327l18.927 18.927c9.053 9.053 23.732 9.053 32.786 0l22.544-22.544c1.331-1.331 2.442-2.793 3.381-4.332-10.612 1.513-21.453 2.313-32.483 2.313z" fill="#358cd9"/><path d="m207.879 145.101c-.027-.07-.055-.142-.084-.212-1.508-3.664-5.04-6.029-9.002-6.029-.004 0-.007 0-.01 0-3.965.004-7.498 2.377-9 6.047-.024.059-.047.118-.069.177l-33.268 87.35c-1.519 3.987.482 8.451 4.47 9.97 3.988 1.518 8.451-.483 9.97-4.471l6.39-16.778h42.787l6.324 16.757c1.168 3.094 4.108 5 7.23 5 .906 0 1.828-.161 2.726-.5 3.992-1.506 6.008-5.964 4.501-9.957zm-24.717 60.601 15.607-40.977 15.464 40.977z" fill="#f8f8ff"/><path d="m348.333 138.859c-4.267 0-7.726 3.459-7.726 7.726v88.598c0 4.268 3.459 7.726 7.726 7.726s7.726-3.459 7.726-7.726v-88.598c0-4.267-3.459-7.726-7.726-7.726z" fill="#f8f8ff"/><path d="m290.689 138.859h-24.67c-4.153-.083-7.798 3.582-7.726 7.726v88.598c0 4.268 3.459 7.726 7.726 7.726s7.726-3.459 7.726-7.726v-30.8c5.655-.031 13.072-.066 16.943-.066 18.317 0 33.219-14.682 33.219-32.729s-14.901-32.729-33.218-32.729zm0 50.005c-3.848 0-11.153.035-16.798.065l-.119-34.618h16.917c9.63 0 17.766 7.911 17.766 17.276 0 9.366-8.136 17.277-17.766 17.277z" fill="#f8f8ff"/></g><g/><g/><g/><g/><g/><g/><g/><g/><g/><g/><g/><g/><g/><g/><g/></svg>