<svg id="fi_9850877" enable-background="new 0 0 512.023 512.023" height="512" viewBox="0 0 512.023 512.023" width="512" xmlns="http://www.w3.org/2000/svg"><g><path d="m240.476 403.586c0 30.022 59.105 54.359 132.016 54.359s132.016-24.338 132.016-54.359v-62.125c0 30.022-264.031 30.022-264.031 0v62.125z" fill="#528fd8"></path><ellipse cx="372.492" cy="341.461" fill="#0573ce" rx="132.016" ry="54.359"></ellipse><path d="m240.476 310.399c0 30.022 59.105 54.359 132.016 54.359s132.016-24.338 132.016-54.359v-62.125c0 30.022-264.031 30.022-264.031 0v62.125z" fill="#528fd8"></path><ellipse cx="372.492" cy="248.274" fill="#0573ce" rx="132.016" ry="54.359"></ellipse><path d="m240.476 217.211c0 30.022 59.105 54.359 132.016 54.359s132.016-24.338 132.016-54.359v-62.125c0 30.022-264.031 30.022-264.031 0v62.125z" fill="#528fd8"></path><ellipse cx="372.492" cy="155.086" fill="#b2caec" rx="132.016" ry="54.359"></ellipse><path d="m451.508 111.535c8.331 7.125 13 15.114 13 23.551 0 30.022-59.105 54.359-132.016 54.359-29.633 0-56.985-4.02-79.016-10.808 21.313 18.228 66.596 30.808 119.016 30.808 72.91 0 132.016-24.338 132.016-54.359-.001-17.82-20.825-33.637-53-43.551z" fill="#82aee3"></path><path d="m174.404 310.591c68.228 22.183 144.987-5.465 182.297-70.088 42.934-74.363 17.349-169.483-57.166-212.254-74.398-42.704-168.82-17.269-211.71 57.021-37.294 64.597-22.885 144.856 30.387 192.858 5.756 5.187 6.631 13.894 1.999 20.105l-38.889 52.155 16.753 27.597 32.277.71 25.722-59.755c3.051-7.086 10.993-10.734 18.33-8.349z" fill="#0055a3"></path><path d="m15.727 438.359c-14.818 19.873-8.975 48.225 12.493 60.619 21.468 12.395 48.943 3.279 58.744-19.49l43.388-100.793-49.03-28.307z" fill="#fd6930"></path><circle cx="222.264" cy="162.852" fill="#99e6fc" r="124.25"></circle><path d="m253.577 42.582c39.775 20.716 66.936 62.321 66.936 110.27 0 68.621-55.629 124.25-124.25 124.25-10.817 0-21.31-1.383-31.314-3.98 17.148 8.931 36.642 13.98 57.314 13.98 68.621 0 124.25-55.629 124.25-124.25.001-57.805-39.473-106.39-92.936-120.27z" fill="#62dbfb"></path><path d="m160.139 100.196v125.313c0 8.284 6.716 15 15 15h94.25c8.284 0 15-6.716 15-15v-53.188c0-12.608-6.616-30.008-15.531-38.923l-32.67-32.67c-8.915-8.915-26.316-15.531-38.923-15.531h-22.125c-8.285-.001-15.001 6.714-15.001 14.999z" fill="#dff6fd"></path><path d="m236.187 99.119 34.278 34.278c8.915 8.915 13.923 21.006 13.923 33.614v5.309c0-13.807-11.193-25-25-25h-22.125c-8.284 0-15-6.716-15-15v-22.125c0-13.807-11.193-25-25-25h5.309c12.609.001 24.7 5.009 33.615 13.924z" fill="#f2fbff"></path><path d="m512.007 155.086c0-17.759-15.382-33.872-43.311-45.373-25.819-10.631-59.985-16.486-96.205-16.486-1.026 0-2.061.005-3.1.015-14.063-29.875-36.875-54.709-66.124-71.498-37.715-21.649-81.523-27.366-123.353-16.1-41.829 11.267-76.84 38.213-98.584 75.875-18.744 32.468-25.731 70.687-19.674 107.616 5.973 36.416 24.275 70 51.536 94.563 2.898 2.612 3.331 6.933 1.007 10.05-3.469 4.653-102.547 137.529-104.485 140.127-8.342 11.188-11.511 25.443-8.694 39.111s11.364 25.509 23.45 32.486c7.511 4.337 15.964 6.551 24.467 6.55 5.18 0 10.378-.821 15.392-2.484 13.246-4.395 24.007-14.267 29.524-27.085l15.092-35.059c1.638-3.805-.118-8.217-3.923-9.854-3.804-1.636-8.216.119-9.854 3.923l-15.092 35.06c-3.826 8.887-11.287 15.731-20.471 18.778-9.182 3.047-19.255 2.02-27.635-2.818s-14.306-13.047-16.259-22.523.244-19.36 6.028-27.117l61.608-82.625 37.479 21.638-11.421 26.531c-1.638 3.805.119 8.217 3.923 9.854 3.808 1.638 8.218-.118 9.854-3.923 14.131-32.827 25.525-59.296 39.78-92.412 1.539-3.573 5.463-5.374 9.121-4.182 20.808 6.765 42.802 9.169 64.489 7.249.163.324.332.646.506.968-2.725 5.002-4.103 10.204-4.103 15.521v62.125c0 17.759 15.382 33.872 43.311 45.373 25.819 10.631 59.985 16.486 96.205 16.486s70.386-5.855 96.205-16.486c27.929-11.501 43.311-27.614 43.311-45.373v-62.125c0-5.324-1.381-10.532-4.113-15.539 2.716-4.971 4.113-10.173 4.113-15.524v-62.125c0-5.324-1.381-10.532-4.113-15.539 2.716-4.971 4.113-10.173 4.113-15.524zm-263.874 184.21c8.184 7.13 19.56 13.436 33.853 18.693 25.014 9.201 57.156 14.269 90.506 14.269 36.22 0 70.386-5.855 96.205-16.486 11.623-4.786 21.072-10.371 28.144-16.541.11.746.167 1.489.167 2.23 0 22.164-51.137 46.859-124.516 46.859s-124.516-24.695-124.516-46.859c0-.719.053-1.441.157-2.165zm248.874-28.897c0 22.164-51.137 46.859-124.516 46.859-31.627 0-61.93-4.739-85.327-13.346-16.091-5.919-28.024-13.376-34.27-21.216 4.451-.851 8.872-1.888 13.251-3.11.591.611 1.296 1.132 2.104 1.526 13.258 6.474 30.032 11.714 48.509 15.156.465.087.927.128 1.383.128 3.541 0 6.692-2.52 7.364-6.127.759-4.072-1.928-7.988-5.999-8.747-12.138-2.261-23.416-5.325-33.246-9.007 6.592-2.819 12.971-6.068 19.101-9.714 20.411 4.801 43.544 7.332 67.131 7.332 36.22 0 70.386-5.855 96.205-16.486 11.714-4.824 21.22-10.459 28.311-16.687v33.439zm-124.515-15.266c-17.258 0-34.221-1.415-49.909-4.131 5.428-4.254 10.585-8.85 15.437-13.759 11.206 1.213 22.784 1.827 34.472 1.827 36.22 0 70.386-5.855 96.205-16.486 11.623-4.786 21.072-10.371 28.144-16.541.11.746.167 1.489.167 2.23-.001 22.165-51.137 46.86-124.516 46.86zm124.515-140.047c0 10.264-10.865 21.082-29.81 29.682-3.771 1.712-5.44 6.157-3.729 9.93 1.256 2.766 3.981 4.401 6.834 4.401 1.036 0 2.09-.217 3.096-.673 9.57-4.344 17.487-9.293 23.608-14.685v33.47c0 22.164-51.137 46.859-124.516 46.859-7.466 0-14.881-.263-22.169-.783 4.717-6.01 9.024-12.369 12.873-19.035 5.083-8.804 9.292-17.946 12.615-27.324 21.425-.218 42.562-2.538 61.334-6.745 4.042-.905 6.585-4.916 5.679-8.958-.906-4.043-4.918-6.587-8.958-5.679-16.399 3.674-34.757 5.828-53.523 6.3 6.557-26.436 6.337-54.246-.943-81.28-1.125-4.179-2.407-8.29-3.838-12.325 71.733.678 121.447 24.992 121.447 46.845zm-320.284 148.372c-11.078-3.601-22.915 1.779-27.537 12.516l-22.388 52.008-34.421-19.873 33.847-45.393c6.982-9.365 5.696-22.331-2.991-30.159-51.407-46.323-63.567-123.512-28.913-183.537 40.629-70.371 131.011-94.716 201.481-54.267 27.734 15.92 49.093 39.807 61.685 68.556.116.328.254.646.413.951 2.794 6.503 5.142 13.251 7.016 20.208 7.385 27.421 6.769 55.721-1.491 82.179-.138.343-.251.699-.337 1.066-3.205 9.999-7.505 19.728-12.881 29.04-34.676 60.06-107.634 88.114-173.483 66.705zm195.769 146.988c-73.379 0-124.516-24.695-124.516-46.859v-33.439c7.09 6.228 16.597 11.863 28.311 16.687 25.819 10.631 59.985 16.486 96.205 16.486s70.386-5.855 96.205-16.486c11.714-4.824 21.22-10.459 28.311-16.687v33.439c-.001 22.163-51.137 46.859-124.516 46.859z"></path><circle cx="473.45" cy="221.184" r="7.5"></circle><circle cx="442.382" cy="232.277" r="7.5"></circle><circle cx="473.45" cy="314.372" r="7.5"></circle><circle cx="442.382" cy="325.465" r="7.5"></circle><path d="m319.506 414.709c-17.167-3.198-32.616-8.001-44.677-13.889-3.719-1.818-8.212-.273-10.029 3.449s-.273 8.213 3.449 10.029c13.258 6.474 30.032 11.714 48.509 15.156.465.087.927.128 1.383.128 3.541 0 6.692-2.52 7.364-6.127.759-4.071-1.927-7.987-5.999-8.746z"></path><circle cx="473.45" cy="407.559" r="7.5"></circle><circle cx="442.382" cy="418.652" r="7.5"></circle><path d="m222.263 31.102c-23.161 0-45.943 6.097-65.882 17.631-3.585 2.074-4.811 6.662-2.736 10.248 2.075 3.585 6.662 4.81 10.248 2.737 17.658-10.216 37.843-15.615 58.37-15.615 64.376 0 116.75 52.374 116.75 116.75s-52.374 116.75-116.75 116.75-116.75-52.374-116.75-116.75c0-30.064 11.399-58.619 32.1-80.404 2.853-3.003 2.731-7.75-.271-10.604-3.003-2.851-7.749-2.732-10.604.271-23.359 24.585-36.225 56.81-36.225 90.736 0 72.647 59.103 131.75 131.75 131.75s131.75-59.103 131.75-131.75-59.102-131.75-131.75-131.75z"></path><path d="m222.264 216.946c4.143 0 7.5-3.357 7.5-7.5v-15.531c0-4.143-3.357-7.5-7.5-7.5s-7.5 3.357-7.5 7.5v15.531c0 4.142 3.358 7.5 7.5 7.5z"></path><path d="m191.202 216.946c4.143 0 7.5-3.357 7.5-7.5v-62.125c0-4.143-3.357-7.5-7.5-7.5s-7.5 3.357-7.5 7.5v62.125c0 4.142 3.357 7.5 7.5 7.5z"></path><path d="m253.327 216.946c4.143 0 7.5-3.357 7.5-7.5v-31.062c0-4.143-3.357-7.5-7.5-7.5s-7.5 3.357-7.5 7.5v31.062c0 4.142 3.357 7.5 7.5 7.5z"></path><path d="m269.389 248.008c12.406 0 22.5-10.094 22.5-22.5v-58.497c0-14.701-5.725-28.522-16.12-38.918l-34.278-34.277h-.001c-10.395-10.394-24.217-16.12-38.917-16.12h-27.434c-12.406 0-22.5 10.094-22.5 22.5v125.313c0 12.406 10.094 22.5 22.5 22.5h94.25zm-38.506-143.585 34.278 34.277c.66.659 1.295 1.339 1.902 2.035-2.461-.598-5.032-.915-7.675-.915h-22.125c-4.136 0-7.5-3.364-7.5-7.5v-22.125c0-2.643-.317-5.213-.915-7.674.698.608 1.376 1.242 2.035 1.902zm-63.244 121.085v-125.312c0-4.136 3.364-7.5 7.5-7.5h22.125c9.649 0 17.5 7.851 17.5 17.5v22.125c0 12.406 10.094 22.5 22.5 22.5h22.125c9.649 0 17.5 7.851 17.5 17.5v53.188c0 4.136-3.364 7.5-7.5 7.5h-94.25c-4.135-.001-7.5-3.365-7.5-7.501z"></path></g></svg>