<svg id="Layer_1" enable-background="new 0 0 68 68" height="512" viewBox="0 0 68 68" width="512" xmlns="http://www.w3.org/2000/svg"><g><path d="m66.0016785 7.3699951v53.2600098c0 2.9599914-2.4100342 5.3699951-5.3700562 5.3699951h-53.2599487c-2.9700012 0-5.3699951-2.4100037-5.3699951-5.3699951v-53.2600098c0-2.9699859 2.3999939-5.3699951 5.3699951-5.3699951h53.2599487c2.960022 0 5.3700562 2.4000092 5.3700562 5.3699951" fill="#e5f4f7"/><path d="m65.9983215 15.80159h-7.460022l.5 1.1600037c.5800171 1.3700104-.4199829 2.8899994-1.9100342 2.8899994h-20.079956c-.8300171 0-1.5800171-.4899902-1.8999939-1.2599945l-1.2000122-2.7900086h-31.9499817v-8.4299927c0-2.9700012 2.3999939-5.3699951 5.3699951-5.3699951h53.2599487c2.960022 0 5.3700562 2.3999939 5.3700562 5.3699951z" fill="#47d681"/><g fill="#fff"><path d="m12.6018066 9.0398865c0 1.5600128-1.2700195 2.8300018-2.8300171 2.8300018s-2.8299865-1.269989-2.8299865-2.8300018c0-1.5699921 1.269989-2.8299866 2.8299866-2.8299866s2.830017 1.2599945 2.830017 2.8299866"/><path d="m21.3572083 9.0398865c0 1.5600128-1.2700195 2.8300018-2.8300171 2.8300018s-2.8299866-1.269989-2.8299866-2.8300018c0-1.5699921 1.269989-2.8299866 2.8299866-2.8299866s2.8300171 1.2599945 2.8300171 2.8299866"/><path d="m30.1124878 9.0398865c0 1.5600128-1.2700195 2.8300018-2.8300171 2.8300018s-2.8299866-1.269989-2.8299866-2.8300018c0-1.5699921 1.269989-2.8299866 2.8299866-2.8299866s2.8300171 1.2599945 2.8300171 2.8299866"/></g><path d="m38.5157776 52.0696869c0 2.4950104-2.0050049 4.5-4.5 4.5-2.5180054 0-4.5230103-2.0049896-4.5230103-4.5 0-2.4949951 2.0050049-4.522995 4.5230103-4.522995 2.4949951 0 4.5 2.0279999 4.5 4.522995" fill="#2c3033"/><path d="m15.0358887 37.2854919c.1019897-.118988.2199707-.2369995.3389893-.3559875-.1190186.118988-.2369995.2369995-.3389893.3730011z" fill="#00d67f"/><path d="m50.8937683 35.2322998-6.0410156 6.1940002c-2.9360352-2.4779968-6.7040405-3.970993-10.8439941-3.970993-4.4120178 0-8.4179993 1.6970062-11.42099 4.496994.1859741-.2029877.3729858-.3559875.5599976-.526001l-6.0420227-6.1940002c4.4970093-4.0049896 10.4200134-6.4319916 16.9030151-6.4319916 6.4660034 0 12.4049682 2.427002 16.8850097 6.4319916" fill="#febb50"/><path d="m59.4128113 52.5589905c.0679932.8820038-.6780396 1.6120148-1.5610352 1.6120148h-5.5319824c-.7980347 0-1.4940186-.5770111-1.5620117-1.3570099-.2030029-2.2919922-.8649902-4.4459991-1.8829956-6.3809967-.5090332-.9680023-1.1040039-1.8670044-1.7819824-2.6990051-.3400269-.423996-.6960449-.8309937-1.0690308-1.2039948-.0679932-.0850067-.1530151-.1529999-.2210083-.2210083-.3059692-.3059998-.6279907-.6109924-.9500122-.8819885l6.0410156-6.1950073c1.0690308.951004 2.0530396 1.9860077 2.9530029 3.0890045 3.1730347 3.9369964 5.1929932 8.8589935 5.5660401 14.2379913" fill="#fb545c"/><path d="m23.1477051 41.42659c-.1870117.1690063-.3740234.3220062-.5600281.526001-.3909912.3390045-.7639771.730011-1.1029968 1.1200104-.3059998.3059998-.5599976.6279907-.8150024.9669952-1.8999939 2.4779968-3.1389771 5.4990082-3.4279785 8.7740021-.0680237.7799988-.7630005 1.3580017-1.5610046 1.3580017h-5.5329895c-.882019 0-1.6280212-.7299957-1.5610046-1.6130066.4079895-5.8540039 2.7669983-11.1660004 6.4489746-15.2559967.1020203-.1360016.2200012-.2539978.3400269-.3730011.2709961-.3059998.5429993-.5939941.8479919-.8659973.2879944-.2879944.5769958-.5599976.8819885-.8309937z" fill="#43a2ff"/><path d="m32.209198 53.8538971c-1.0720215-1.071991-.9960022-2.8319855.164978-3.8069916l17.7559814-14.9170074c.526001-.4429932 1.2340088.2660065.7930298.7920074l-14.9060058 17.7649994c-.9750061 1.1629944-2.7359924 1.2389984-3.8079834.1669922" fill="#2c3033"/><path d="m35.3165894 52.0613861c0 .7260132-.5830078 1.3090057-1.309021 1.3090057-.7319946 0-1.3150024-.5829926-1.3150024-1.3090057 0-.7259979.5830078-1.3149872 1.3150024-1.3149872.7260131 0 1.309021.5889893 1.309021 1.3149872" fill="#fff"/></g></svg>