<svg id="Layer_1" enable-background="new 0 0 128 128" viewBox="0 0 128 128" xmlns="http://www.w3.org/2000/svg"><g id="testimonials_x5F_quote"><path d="m39.055 59.505c-.743 0-1.476.039-2.2.111-1.982-9.034-.908-20.812 7.068-35.696 0 0-29.763 21.011-26.89 59.894.042.02.086.037.128.056 1.171 11.06 10.524 19.678 21.894 19.678 12.162 0 22.022-9.86 22.022-22.022 0-12.161-9.86-22.021-22.022-22.021z" fill="#3688d8"/><path d="m39.055 99.549c-11.37 0-20.724-8.618-21.894-19.678-.042-.02-.086-.036-.128-.056-.082-1.113-.131-2.206-.161-3.29-.069 2.356-.024 4.784.161 7.29.042.02.086.037.128.056 1.171 11.06 10.524 19.678 21.894 19.678 12.162 0 22.022-9.86 22.022-22.022 0-.675-.035-1.341-.094-2-1.012 11.225-10.441 20.022-21.928 20.022z" opacity=".1"/><path d="m31.855 64.616c.724-.072 1.457-.111 2.2-.111 12.162 0 27.022 4.86 27.022 17.022 0-12.162-9.86-22.022-22.022-22.022-.743 0-1.476.039-2.2.111-1.982-9.034-.908-20.812 7.068-35.696-7.976 14.884-14.05 31.662-12.068 40.696z" fill="#fff" opacity=".2"/><path d="m90.055 59.505c-.743 0-1.476.039-2.2.111-1.982-9.034-.908-20.812 7.068-35.696 0 0-29.763 21.011-26.89 59.894.042.02.086.037.128.056 1.171 11.06 10.524 19.678 21.894 19.678 12.162 0 22.022-9.86 22.022-22.022 0-12.161-9.86-22.021-22.022-22.021z" fill="#3688d8"/><path d="m90.055 99.549c-11.37 0-20.724-8.618-21.894-19.678-.042-.02-.086-.036-.128-.056-.082-1.113-.131-2.206-.161-3.29-.069 2.356-.024 4.784.161 7.29.042.02.086.037.128.056 1.171 11.06 10.524 19.678 21.894 19.678 12.162 0 22.022-9.86 22.022-22.022 0-.675-.035-1.341-.094-2-1.012 11.225-10.441 20.022-21.928 20.022z" opacity=".1"/><path d="m82.855 64.616c.724-.072 1.457-.111 2.2-.111 12.162 0 27.022 4.86 27.022 17.022 0-12.162-9.86-22.022-22.022-22.022-.743 0-1.476.039-2.2.111-1.982-9.034-.908-20.812 7.068-35.696-7.976 14.884-14.05 31.662-12.068 40.696z" fill="#fff" opacity=".2"/></g></svg>