<svg height="512" viewBox="0 0 24 24" width="512" xmlns="http://www.w3.org/2000/svg"><g id="Layer_2" fill="#0779f5" data-name="Layer 2"><path d="m22 12a1 1 0 0 0 -1 1v6a2 2 0 0 1 -2 2h-14a2 2 0 0 1 -2-2v-14a2 2 0 0 1 2-2h6a1 1 0 0 0 0-2h-6a4 4 0 0 0 -4 4v14a4 4 0 0 0 4 4h14a4 4 0 0 0 4-4v-6a1 1 0 0 0 -1-1z"/><path d="m22.922 1.614a.989.989 0 0 0 -.186-.278c-.012-.013-.016-.03-.029-.043s-.03-.017-.043-.029a.939.939 0 0 0 -.664-.264h-6a1 1 0 0 0 0 2h3.586l-7.293 7.293a1 1 0 1 0 1.414 1.414l7.293-7.293v3.586a1 1 0 0 0 2 0v-6a.99.99 0 0 0 -.078-.386z"/></g></svg>