<svg id="Layer_1" viewBox="0 0 512 512" xmlns="http://www.w3.org/2000/svg" data-name="Layer 1"><circle cx="152.324" cy="371.973" fill="#e8333c" r="23.102"/><path d="m144.832 393.833c-9.082-3.112-15.611-11.723-15.611-21.859s6.529-18.747 15.611-21.859c9.082 3.112 15.611 11.723 15.611 21.859s-6.529 18.747-15.611 21.859z" fill="#ff4d4d" fill-rule="evenodd"/><circle cx="45.59" cy="271.24" fill="#fdc72e" r="30.488" transform="matrix(.376 -.927 .927 .376 -222.91 211.595)"/><path d="m35.736 300.1c-12.003-4.097-20.635-15.47-20.635-28.86s8.632-24.763 20.635-28.86c12.003 4.097 20.635 15.47 20.635 28.86s-8.632 24.763-20.635 28.86z" fill="#fcdb35" fill-rule="evenodd"/><circle cx="466.525" cy="271.24" fill="#f2671f" r="30.488"/><path d="m456.671 300.1c-12.003-4.097-20.635-15.47-20.635-28.86s8.632-24.763 20.635-28.86c12.003 4.097 20.635 15.47 20.635 28.86s-8.632 24.763-20.635 28.86z" fill="#ff8748" fill-rule="evenodd"/><circle cx="256.058" cy="315.363" fill="#29b933" r="30.488" transform="matrix(1 -.005 .005 1 -1.479 1.207)"/><path d="m246.204 344.223c-12.003-4.097-20.635-15.47-20.635-28.86s8.632-24.763 20.635-28.86c12.003 4.097 20.635 15.47 20.635 28.86s-8.632 24.763-20.635 28.86z" fill="#2dd62d" fill-rule="evenodd"/><circle cx="256.058" cy="81.181" fill="#2a93fc" r="70.209" transform="matrix(.007 -1 1 .007 173.199 336.701)"/><path d="m246.187 150.697c-34.101-4.799-60.339-34.09-60.339-69.515s26.238-64.717 60.339-69.515c34.101 4.799 60.339 34.09 60.339 69.515s-26.238 64.716-60.339 69.515z" fill="#4eb1fc" fill-rule="evenodd"/><circle cx="376.322" cy="475.707" fill="#2dcffc" r="25.265" transform="matrix(.973 -.23 .23 .973 -99.228 99.187)"/><g fill-rule="evenodd"><path d="m366.468 498.978c-9.058-3.84-15.412-12.814-15.412-23.272s6.354-19.431 15.412-23.271c9.058 3.84 15.412 12.813 15.412 23.271s-6.354 19.431-15.412 23.272z" fill="#66deff"/><path d="m252.171 84.402 34.536-34.54c2.342-2.342 6.144-2.342 8.481 0 2.352 2.342 2.352 6.144 0 8.485l-40.057 40.067c-1.142 1.132-2.67 1.759-4.25 1.759-.26 0-.52-.019-.781-.053-1.85-.246-3.479-1.335-4.409-2.949l-13.073-22.628c-1.648-2.867-.67-6.539 2.202-8.197 2.867-1.658 6.539-.675 8.201 2.197l9.15 15.858zm-39.672 21.915c9.3 16.099 26.209 25.105 43.58 25.105 8.52 0 17.14-2.164 25.028-6.717 14.08-8.129 23.39-22.653 24.903-38.853.308-3.301-2.111-6.226-5.412-6.534-3.31-.313-6.23 2.115-6.529 5.416-1.161 12.331-8.24 23.39-18.961 29.577-8.837 5.103-19.139 6.462-28.999 3.821-9.869-2.646-18.113-8.968-23.212-17.815-10.539-18.253-4.269-41.677 13.989-52.215 4.033-2.328 8.375-3.884 12.914-4.626 4.978-.819 10.009-.641 14.948.52 3.219.761 6.452-1.243 7.214-4.467.757-3.223-1.243-6.457-4.462-7.214-6.491-1.527-13.092-1.754-19.641-.684-5.97.983-11.69 3.026-16.971 6.081-23.988 13.844-32.227 44.621-18.388 68.603zm253.973 189.441c-13.502 0-24.493-10.991-24.493-24.493s10.991-24.488 24.493-24.488 24.488 10.987 24.488 24.488-10.991 24.493-24.488 24.493zm-83.315 149.48 63.303-143.481c-6.279-4.129-11.198-10.153-13.979-17.241l-101.732 21.332 42.308 138.778c1.05-.096 2.12-.159 3.199-.159 2.371 0 4.684.27 6.9.771zm-6.9 49.758c-10.615 0-19.255-8.64-19.255-19.26s8.64-19.27 19.255-19.27 19.27 8.64 19.27 19.27-8.64 19.26-19.27 19.26zm-195.638-116.477c.491-2.101.751-4.284.751-6.52 0-2.91-.439-5.725-1.233-8.375l47.165-25.737c6.688 8.51 17.058 13.988 28.695 13.988 6.052 0 11.762-1.489 16.793-4.11l80.269 107.032c-.742.829-1.441 1.696-2.101 2.597l-170.34-78.877zm-28.349 10.577c-9.43 0-17.111-7.666-17.111-17.097s7.681-17.101 17.111-17.101 17.097 7.671 17.097 17.101-7.666 17.097-17.097 17.097zm-106.743-93.338c-13.497 0-24.489-10.991-24.489-24.493s10.991-24.488 24.489-24.488 24.493 10.987 24.493 24.488-10.982 24.493-24.493 24.493zm210.471-278.76c-35.398 0-64.209 28.806-64.209 64.209s28.811 64.209 64.209 64.209 64.213-28.806 64.213-64.209-28.801-64.209-64.213-64.209zm33.991 285.14c-4.621-11.791-15.179-20.609-27.992-22.739v-122.24c3.542-.279 7.021-.795 10.413-1.542l43.04 141.182-25.462 5.339zm-58.48 13.251c0 13.497 10.992 24.488 24.489 24.488s24.493-10.991 24.493-24.488-10.992-24.493-24.493-24.493-24.489 10.991-24.489 24.493zm18.489-35.991c-12.808 2.13-23.366 10.948-27.982 22.739l-35.779-7.502 49.893-139.867c4.467 1.214 9.107 2.014 13.868 2.39zm-25.168-128.673-50.451 141.418-92.398-19.366c.019-.501.039-1.007.039-1.513 0-7.233-2.12-13.979-5.768-19.655l127.43-115.07c6.168 5.835 13.309 10.654 21.149 14.186zm-89.14 197.373c4.698-3.272 10.418-5.204 16.581-5.204 1.32 0 2.631.101 3.908.27l14.133-39.61-90.793-19.039c-.978 2.511-2.217 4.881-3.701 7.079zm31.789-.891c2.602 1.59 4.92 3.59 6.891 5.888l47.17-25.741c-1.311-3.749-2.029-7.777-2.029-11.965 0-.511.019-1.012.039-1.513l-37.378-7.84-14.692 41.171zm114.901-6.65c6.25-6.549 10.11-15.42 10.11-25.168 0-.511-.019-1.012-.039-1.513l26.507-5.561 41.6 136.48zm147.601-69.293c0 .506.019 1.012.038 1.513l-102.782 21.549-43.349-142.219c9.141-3.609 17.41-8.929 24.431-15.569l127.43 115.07c-3.648 5.677-5.768 12.423-5.768 19.655zm36.492-36.487c-8.573 0-16.446 2.973-22.672 7.932l-127.43-115.07c9.922-12.866 15.839-28.965 15.839-46.433 0-42.024-34.188-76.207-76.212-76.207s-76.208 34.184-76.208 76.207c0 17.468 5.917 33.567 15.839 46.433l-127.43 115.07c-6.23-4.958-14.099-7.932-22.671-7.932-20.118 0-36.487 16.369-36.487 36.487s16.369 36.492 36.487 36.492c8.283 0 15.921-2.78 22.05-7.44l59.872 56.513c-2.718 4.419-4.289 9.608-4.289 15.169 0 16.046 13.059 29.1 29.11 29.1 9.517 0 17.988-4.602 23.308-11.695l170.321 78.882c-.578 2.39-.901 4.881-.901 7.45 0 17.231 14.022 31.263 31.259 31.263s31.273-14.032 31.273-31.263c0-10.601-5.31-19.978-13.401-25.64l63.298-143.476c2.891.737 5.922 1.137 9.045 1.137 20.118 0 36.487-16.369 36.487-36.492s-16.369-36.487-36.487-36.487z" fill="#021047"/></g></svg>