<svg id="fi_12176853" viewBox="0 0 512 512" xmlns="http://www.w3.org/2000/svg" data-name="Layer 1"><path d="m341.32 107.38h23.953v92.154h-23.953z" fill="#57a3ff"></path><path d="m389.197 84.447h23.953v115.087h-23.953z" fill="#fa4655"></path><path d="m437.103 61.543h23.924v137.99h-23.924z" fill="#4bd16d"></path><path d="m293.443 130.312h23.925v69.222h-23.925z" fill="#ffba57"></path><g fill-rule="evenodd"><path d="m396.8 263.8c0-18.34-49.352-33.222-110.212-33.222-60.888 0-110.239 14.882-110.239 33.222v207.973c-.005 18.369 49.351 33.227 110.234 33.227 60.86 0 110.212-14.853 110.212-33.222v-207.978z" fill="#2387ff"></path><path d="m211.1 239.588c-21.373 6.066-34.753 14.655-34.753 24.207v207.978c0 9.553 13.38 18.17 34.753 24.208z" fill="#207ae6"></path><path d="m286.583 297.017c60.69 0 110.212-14.91 110.212-33.222 0-18.283-49.522-33.222-110.212-33.222-60.718 0-110.239 14.939-110.239 33.222 0 18.312 49.521 33.222 110.239 33.222z" fill="#bdd9ff"></path><path d="m211.1 239.588c-21.373 6.066-34.753 14.655-34.753 24.207s13.377 18.142 34.753 24.205z" fill="#aac3e6"></path><path d="m176.344 263.8v67.748c0 18.34 49.351 33.223 110.239 33.223 60.86 0 110.212-14.883 110.212-33.223v-67.748c0 18.369-49.352 33.222-110.212 33.222-60.888 0-110.239-14.853-110.239-33.222z" fill="#99c7ff"></path><path d="m176.344 263.8v67.748c0 9.525 13.38 18.142 34.753 24.208v-67.756c-21.373-6.066-34.753-14.655-34.753-24.208z" fill="#8ab3e6"></path><path d="m396.8 333.924h-.284c-4.082 17.235-51.733 30.842-109.928 30.842s-105.874-13.607-109.927-30.842h-.312v67.72c0 18.369 49.351 33.25 110.239 33.25 60.86 0 110.212-14.881 110.212-33.25z" fill="#57a3ff"></path><path d="m211.1 355.751c-19.588-5.556-32.428-13.237-34.441-21.827h-.312v67.72c0 9.553 13.38 18.17 34.753 24.208z" fill="#4e93e6"></path><path d="m253.9 270.683c-2.693-124.922-66.161-189.07-191.424-191.423q128.58 62.84 191.424 191.423z" fill="#cf9646"></path><path d="m67.919 293.02a19.691 19.691 0 0 1 -27.751 0 19.674 19.674 0 0 1 0-27.779c50.2-50.2 112.365-112.365 163.644-163.672a10.367 10.367 0 0 1 14.627 0l13.152 13.152a10.369 10.369 0 0 1 0 14.627c-51.307 51.279-113.471 113.471-163.672 163.672z" fill="#e6a74e"></path><path d="m187.286 105.509 40.365 40.365a6.466 6.466 0 0 1 0 9.1l-30.614 30.586a6.432 6.432 0 0 1 -9.071 0l-40.366-40.366a6.432 6.432 0 0 1 0-9.071l30.614-30.614a6.432 6.432 0 0 1 9.071 0z" fill="#ffba57"></path></g><path d="m249.053 7.005h96.208v73.304h-96.208z" fill="#eaf6ff"></path><path d="m53.944 271.534c33.59-33.591 72.539-72.51 110.013-109.984l-10.063-10.063c-38.608 38.613-79.03 79.058-113.726 113.754a19.6 19.6 0 0 0 13.237 33.477 19.7 19.7 0 0 1 .539-27.184z" fill="#cf9646" fill-rule="evenodd"></path><path d="m193.579 111.8 10.063 10.063 13.974-13.975a10.11 10.11 0 0 1 4.479-2.636l-3.656-3.685a10.367 10.367 0 0 0 -14.627 0c-3.345 3.373-6.775 6.8-10.233 10.233z" fill="#cf9646" fill-rule="evenodd"></path><path d="m203.642 121.865-10.063-10.065-6.293-6.293a6.432 6.432 0 0 0 -9.071 0l-1.814 1.814-27.61 27.609-1.19 1.191a6.432 6.432 0 0 0 0 9.071l6.293 6.293 10.063 10.063 6.8-6.8 29.508-29.508c1.106-1.134 2.24-2.24 3.374-3.373z" fill="#e6a74e" fill-rule="evenodd"></path><path d="m148.791 134.932 9.411-9.411a421.037 421.037 0 0 0 -68.088-44.645q-13.266-1.361-27.638-1.616a422.047 422.047 0 0 1 86.315 55.672zm59.755 39.147-10.318 10.29a414.456 414.456 0 0 1 35.914 50.2q10.589 17.347 19.758 36.113a323.455 323.455 0 0 0 -2.92-37.9c-.085-.142-.17-.283-.255-.4a410.58 410.58 0 0 0 -42.179-58.308z" fill="#ba873f" fill-rule="evenodd"></path><path d="m249.053 7.005h9.127v73.304h-9.127z" fill="#d3dde6"></path><path d="m293.443 130.312h11.962v69.222h-11.962z" fill="#e6a74e"></path><path d="m341.32 107.38h11.962v92.154h-11.962z" fill="#4e93e6"></path><path d="m389.197 84.447h11.991v115.087h-11.991z" fill="#e63140"></path><path d="m437.103 61.543h11.962v137.99h-11.962z" fill="#44bc62"></path><path d="m335.08 107.38v85.167h-9.98v-62.235a6.987 6.987 0 0 0 -6.988-6.988h-23.922a6.987 6.987 0 0 0 -6.987 6.988v62.235h-8.065a6.987 6.987 0 1 0 0 13.974h197.688a6.987 6.987 0 0 0 0-13.974h-8.064v-131a6.987 6.987 0 0 0 -6.988-6.987h-23.953a6.987 6.987 0 0 0 -6.987 6.987v131h-9.949v-108.1a6.987 6.987 0 0 0 -6.985-6.987h-23.956a6.987 6.987 0 0 0 -6.987 6.987v108.1h-9.978v-85.167a6.987 6.987 0 0 0 -6.988-6.987h-23.924a6.987 6.987 0 0 0 -6.987 6.987zm-33.9 29.919h9.949v55.248h-9.949zm143.629-68.769h9.978v124.017h-9.978zm-47.877 22.905h9.978v101.112h-9.978zm-37.932 22.932v78.18h-9.949v-78.18zm-79.663 208.772c5.416 0 10.683-.121 15.651-.361a6.988 6.988 0 1 1 .672 13.959c-5.192.249-10.683.376-16.323.376a6.987 6.987 0 1 1 0-13.974zm0 70.015c5.416 0 10.683-.121 15.651-.36a6.988 6.988 0 1 1 .672 13.959c-5.192.249-10.683.376-16.323.376a6.988 6.988 0 0 1 0-13.975zm22.967 76.3a6.989 6.989 0 0 1 -6.644 7.316c-5.192.249-10.683.376-16.323.376a6.988 6.988 0 0 1 0-13.975c5.416 0 10.683-.121 15.651-.36a7 7 0 0 1 7.312 6.642zm-247.514-163.712a26.529 26.529 0 0 0 18.816-7.781l108.814-108.814 1.352 1.353a13.356 13.356 0 0 0 13.821 3.184 404.387 404.387 0 0 1 25.9 35.885c-23.15 4.788-53.393 14.769-53.393 34.231v207.973c0 26.4 58.972 40.209 117.226 40.209s117.2-13.811 117.2-40.209v-207.973c0-26.4-58.958-40.209-117.2-40.209-10.037 0-20.045.432-29.83 1.24-4.262-25.513-11.75-47.965-22.416-67.095a13.421 13.421 0 0 0 -1.746-16.8l-1.353-1.353 5.293-5.292a17.352 17.352 0 0 0 0-24.508l-13.148-13.155a17.347 17.347 0 0 0 -24.508 0l-5.293 5.293-1.352-1.353a13.416 13.416 0 0 0 -16.7-1.8c-29.841-16.716-67.784-25.635-112.921-26.49h-.132a6.988 6.988 0 0 0 -3.066 13.266 419.79 419.79 0 0 1 80.064 50.773 13.381 13.381 0 0 0 3.187 13.823l1.353 1.352-108.776 108.799a26.612 26.612 0 0 0 18.808 45.451zm104.793-159.2-5.886-5.885 29.8-29.8 39.555 39.554-29.069 29.069-.028.028-.706.706zm230.971 255.1c0 3.186-5.752 10.312-27.312 16.808-20.174 6.078-47.133 9.426-75.912 9.426s-55.76-3.348-75.937-9.426c-21.562-6.495-27.315-13.622-27.315-16.808v-49.985c20.9 13.255 62.255 20.1 103.252 20.1s82.325-6.84 103.224-20.093zm0-70.1c0 4.125-8.547 11.142-27.313 16.8-20.183 6.085-47.142 9.436-75.911 9.436s-55.748-3.351-75.935-9.436c-18.769-5.657-27.317-12.674-27.317-16.8v-47.633c20.9 13.255 62.255 20.1 103.252 20.1s82.325-6.84 103.224-20.093zm-27.312 157.04c-20.174 6.078-47.133 9.426-75.912 9.426s-55.76-3.348-75.937-9.426c-21.562-6.5-27.315-13.622-27.315-16.809v-50.015c20.9 13.254 62.255 20.1 103.252 20.1s82.325-6.841 103.224-20.094v50.013c0 3.183-5.754 10.309-27.312 16.805zm-75.912-251.021c28.769 0 55.728 3.351 75.911 9.436 18.766 5.657 27.313 12.673 27.313 16.8 0 3.186-5.752 10.313-27.312 16.809-20.174 6.079-47.133 9.426-75.912 9.426s-55.76-3.347-75.937-9.426c-21.562-6.5-27.315-13.622-27.315-16.809 0-5.092 12.911-15.24 47.266-21.52q9.059 15.242 17.027 31.482a6.987 6.987 0 0 0 13.261-3.223q-.356-16.584-2.165-31.848c9.144-.734 18.487-1.127 27.863-1.127zm-78.942-52.724 16.539-16.54c10.3 19.763 17.157 43.291 20.479 70.3a425.252 425.252 0 0 0 -37.018-53.76zm1.111-78.328a3.4 3.4 0 0 1 4.745 0l13.156 13.154a3.38 3.38 0 0 1 0 4.744l-5.3 5.293-17.9-17.9zm-43.809 2.391-16.62 16.62a424.528 424.528 0 0 0 -53.878-37.108c27.108 3.27 50.708 10.127 70.498 20.488zm-119.835 161.282 108.787-108.814 17.9 17.9-108.816 108.811a12.629 12.629 0 0 1 -21.565-8.971 12.52 12.52 0 0 1 3.694-8.926zm203.945-182.882h96.208a6.987 6.987 0 0 0 6.992-6.991v-73.304a6.987 6.987 0 0 0 -6.992-6.987h-96.208a6.986 6.986 0 0 0 -6.987 6.987v73.3a6.986 6.986 0 0 0 6.987 6.995zm6.987-73.3h82.234v59.321h-82.234zm73.927 18.1a6.987 6.987 0 0 1 -6.987 6.987h-51.675a6.988 6.988 0 1 1 0-13.975h51.675a6.987 6.987 0 0 1 6.987 6.98zm0 23.13a6.987 6.987 0 0 1 -6.987 6.987h-51.675a6.988 6.988 0 1 1 0-13.975h51.675a6.987 6.987 0 0 1 6.987 6.98z"></path></svg>