<svg id="Layer_1" enable-background="new 0 0 66 66" height="512" viewBox="0 0 66 66" width="512" xmlns="http://www.w3.org/2000/svg"><g><g><g><path d="m30.72 58.55v1.19c0 1.85-1.5 3.34-3.34 3.34h-21.44c-1.85 0-3.34-1.5-3.34-3.34v-1.19c0-.22.18-.39.39-.39h27.34c.22 0 .39.17.39.39z" fill="#fc4b33"/></g><g><path d="m30.72 58.8v.94c0 1.85-1.5 3.34-3.34 3.34h-21.44c-1.85 0-3.34-1.5-3.34-3.34v-1.19c0-.22.18-.39.39-.39h6.25c1.65 1.43 6.64 2.46 12.53 2.46 4.97 0 6.73-.74 8.95-1.82z" fill="#f6301c"/></g><g><path d="m29.17 44.77v13.39h-25.02v-13.39c0-2 1.62-3.62 3.62-3.62h17.79c1.99 0 3.61 1.62 3.61 3.62z" fill="#f9f9fc"/></g><g><path d="m29.17 53.01v5.14h-25.02v-13.38c0-2 1.62-3.62 3.62-3.62h1.88c-1.13 1.43-1.77 3.05-1.77 4.78 0 5.75 4.55 8.49 13.32 8.49 2.9-.01 5.63-.52 7.97-1.41z" fill="#eaebec"/></g><g><path d="m25.78 46.1v7.11c0 1.01-.82 1.83-1.83 1.83h-14.59c-1.01 0-1.83-.82-1.83-1.83v-7.11c0-1.01.82-1.83 1.83-1.83h14.59c1.02 0 1.83.82 1.83 1.83z" fill="#6abdd6"/></g><g><path d="m25.78 50.94v2.26c0 1.01-.82 1.83-1.83 1.83h-14.59c-1.01 0-1.83-.81-1.83-1.83v-7.1c0-1.01.82-1.83 1.83-1.83h2.3c-.01.07-.01.15-.01.22 0 4.81 3.17 6.87 10.24 6.87 1.36 0 2.67-.15 3.89-.42z" fill="#55a6c4"/></g><g><path d="m27.38 63.81h-21.44c-2.24 0-4.07-1.83-4.07-4.07v-1.19c0-.62.5-1.12 1.12-1.12h27.34c.62 0 1.12.5 1.12 1.12v1.19c0 2.24-1.82 4.07-4.07 4.07zm-24.06-4.93v.85c0 1.44 1.17 2.61 2.61 2.61h21.44c1.44 0 2.61-1.17 2.61-2.61v-.85z" fill="#2f2a38"/></g><g><path d="m29.17 58.88h-25.02c-.4 0-.73-.33-.73-.73v-13.38c0-2.4 1.95-4.35 4.35-4.35h17.79c2.4 0 4.35 1.95 4.35 4.35v13.39c-.01.4-.33.72-.74.72zm-24.29-1.45h23.57v-12.66c0-1.59-1.3-2.89-2.89-2.89h-17.79c-1.59 0-2.89 1.3-2.89 2.89z" fill="#2f2a38"/></g><g><path d="m23.96 55.76h-14.6c-1.41 0-2.56-1.15-2.56-2.56v-7.1c0-1.41 1.15-2.56 2.56-2.56h14.59c1.41 0 2.56 1.15 2.56 2.56v7.11c0 1.41-1.14 2.55-2.55 2.55zm-14.6-10.76c-.61 0-1.1.49-1.1 1.1v7.11c0 .61.49 1.1 1.1 1.1h14.59c.61 0 1.1-.49 1.1-1.1v-7.11c0-.61-.49-1.1-1.1-1.1z" fill="#2f2a38"/></g><g><path d="m17.78 61.35h-2.24c-.4 0-.73-.33-.73-.73s.33-.73.73-.73h2.24c.4 0 .73.33.73.73s-.33.73-.73.73z" fill="#2f2a38"/></g></g><g><g><path d="m63.4 58.55v1.19c0 1.85-1.5 3.34-3.34 3.34h-21.44c-1.85 0-3.34-1.5-3.34-3.34v-1.19c0-.22.18-.39.39-.39h27.34c.22 0 .39.17.39.39z" fill="#fc4b33"/></g><g><path d="m63.4 58.8v.94c0 1.85-1.5 3.34-3.34 3.34h-21.44c-1.85 0-3.34-1.5-3.34-3.34v-1.19c0-.22.18-.39.39-.39h6.25c1.65 1.43 6.64 2.46 12.53 2.46 4.97 0 6.73-.74 8.95-1.82z" fill="#f6301c"/></g><g><path d="m61.85 44.77v13.39h-25.02v-13.39c0-2 1.62-3.62 3.62-3.62h17.79c1.99 0 3.61 1.62 3.61 3.62z" fill="#f9f9fc"/></g><g><path d="m61.85 53.01v5.14h-25.02v-13.38c0-2 1.62-3.62 3.62-3.62h1.88c-1.13 1.43-1.77 3.05-1.77 4.78 0 5.75 4.55 8.49 13.32 8.49 2.9-.01 5.63-.52 7.97-1.41z" fill="#eaebec"/></g><g><path d="m58.46 46.1v7.11c0 1.01-.82 1.83-1.83 1.83h-14.59c-1.01 0-1.83-.82-1.83-1.83v-7.11c0-1.01.82-1.83 1.83-1.83h14.59c1.02 0 1.83.82 1.83 1.83z" fill="#6abdd6"/></g><g><path d="m58.46 50.94v2.26c0 1.01-.82 1.83-1.83 1.83h-14.59c-1.01 0-1.83-.81-1.83-1.83v-7.1c0-1.01.82-1.83 1.83-1.83h2.3c-.01.07-.01.15-.01.22 0 4.81 3.17 6.87 10.24 6.87 1.36 0 2.67-.15 3.89-.42z" fill="#55a6c4"/></g><g><path d="m60.06 63.81h-21.44c-2.24 0-4.07-1.83-4.07-4.07v-1.19c0-.62.5-1.12 1.12-1.12h27.34c.62 0 1.12.5 1.12 1.12v1.19c0 2.24-1.82 4.07-4.07 4.07zm-24.06-4.93v.85c0 1.44 1.17 2.61 2.61 2.61h21.44c1.44 0 2.61-1.17 2.61-2.61v-.85z" fill="#2f2a38"/></g><g><path d="m61.85 58.88h-25.02c-.4 0-.73-.33-.73-.73v-13.38c0-2.4 1.95-4.35 4.35-4.35h17.79c2.4 0 4.35 1.95 4.35 4.35v13.39c-.01.4-.33.72-.74.72zm-24.29-1.45h23.57v-12.66c0-1.59-1.3-2.89-2.89-2.89h-17.79c-1.59 0-2.89 1.3-2.89 2.89z" fill="#2f2a38"/></g><g><path d="m56.64 55.76h-14.6c-1.41 0-2.56-1.15-2.56-2.56v-7.1c0-1.41 1.15-2.56 2.56-2.56h14.59c1.41 0 2.56 1.15 2.56 2.56v7.11c0 1.41-1.14 2.55-2.55 2.55zm-14.6-10.76c-.61 0-1.1.49-1.1 1.1v7.11c0 .61.49 1.1 1.1 1.1h14.59c.61 0 1.1-.49 1.1-1.1v-7.11c0-.61-.49-1.1-1.1-1.1z" fill="#2f2a38"/></g><g><path d="m50.46 61.35h-2.24c-.4 0-.73-.33-.73-.73s.33-.73.73-.73h2.24c.4 0 .73.33.73.73s-.33.73-.73.73z" fill="#2f2a38"/></g></g><g><path d="m46.73 15.66v8.82c0 2.12-7.14 3.84-15.96 3.84-8.81 0-15.95-1.72-15.95-3.84v-8.82c0 2.12 7.14 3.84 15.95 3.84 8.82 0 15.96-1.72 15.96-3.84z" fill="#fece36"/></g><g><path d="m46.73 24.39v.09c0 2.12-7.13 3.84-15.95 3.84-8.81 0-15.94-1.72-15.94-3.84v-8.82c0 1.03 1.67 1.96 4.41 2.64 1.7 3.72 10.25 6.54 20.54 6.54 2.43 0 4.77-.16 6.94-.45z" fill="#f4b725"/></g><g><path d="m30.78 29.05c-8.03 0-16.68-1.43-16.68-4.57v-8.82c0-.4.33-.73.73-.73s.73.33.73.73c0 1.05 5.37 3.11 15.22 3.11s15.23-2.05 15.23-3.11c0-.4.33-.73.73-.73s.73.33.73.73v8.82c-.01 3.14-8.66 4.57-16.69 4.57zm-15.22-11.36v6.8c0 1.05 5.37 3.11 15.22 3.11s15.23-2.05 15.23-3.11v-6.8c-2.8 1.73-9.19 2.54-15.23 2.54s-12.43-.81-15.22-2.54z" fill="#2f2a38"/></g><g><g><path d="m46.73 6.76v8.82c0 2.12-7.14 3.84-15.96 3.84-8.81 0-15.95-1.72-15.95-3.84v-8.82c0 2.12 7.14 3.84 15.95 3.84 8.82-.01 15.96-1.73 15.96-3.84z" fill="#fece36"/></g><g><path d="m46.73 15.49v.09c0 2.12-7.13 3.84-15.95 3.84-8.81 0-15.94-1.72-15.94-3.84v-8.82c0 1.03 1.67 1.96 4.41 2.64 1.7 3.72 10.25 6.54 20.54 6.54 2.43 0 4.77-.16 6.94-.45z" fill="#f4b725"/></g><g><path d="m46.73 6.76c0 2.12-7.14 3.84-15.96 3.84-8.81 0-15.95-1.72-15.95-3.84s7.14-3.84 15.95-3.84c8.82 0 15.96 1.72 15.96 3.84z" fill="#68bfd4"/></g><g><path d="m46.73 6.76c0 2.12-7.13 3.84-15.95 3.84-8.81 0-15.94-1.72-15.94-3.84 0-1.22 2.37-2.3 6.07-3.01 1.09 1.86 7.73 3.29 15.77 3.29 3.73 0 7.17-.31 9.89-.83.1.18.16.36.16.55z" fill="#55a6c4"/></g><g><path d="m30.78 11.32c-8.03 0-16.68-1.43-16.68-4.57s8.65-4.57 16.68-4.57c8.04 0 16.69 1.43 16.69 4.57s-8.66 4.57-16.69 4.57zm0-7.67c-9.85 0-15.22 2.05-15.22 3.11s5.37 3.11 15.22 3.11c9.85-.01 15.22-2.06 15.22-3.11s-5.37-3.11-15.22-3.11z" fill="#2f2a38"/></g><g><path d="m46.73 7.49c-.4 0-.73-.33-.73-.73-.06-.22-.03-.49.11-.68.14-.18.35-.33.58-.33.4 0 .77.33.77.73v.27c0 .41-.32.74-.73.74z" fill="#2f2a38"/></g><g><path d="m30.78 20.15c-8.03 0-16.68-1.43-16.68-4.57v-8.82c0-.4.33-.73.73-.73s.73.33.73.73c0 1.05 5.37 3.11 15.22 3.11s15.22-2.06 15.22-3.11c0-.4.33-.73.73-.73s.73.33.73.73v8.82c0 3.14-8.65 4.57-16.68 4.57zm-15.22-11.37v6.8c0 1.05 5.37 3.11 15.22 3.11s15.23-2.05 15.23-3.11v-6.8c-2.8 1.73-9.19 2.54-15.23 2.54s-12.43-.8-15.22-2.54z" fill="#2f2a38"/></g><g><path d="m21.25 13.74c0 1-.81 1.82-1.82 1.82-1 0-1.82-.82-1.82-1.82 0-1.01.82-1.83 1.82-1.83 1.01-.01 1.82.81 1.82 1.83z" fill="#fff"/></g><g><path d="m19.42 16.29c-1.41 0-2.55-1.14-2.55-2.55s1.14-2.56 2.55-2.56 2.55 1.15 2.55 2.56c.01 1.4-1.14 2.55-2.55 2.55zm0-3.66c-.6 0-1.09.49-1.09 1.1 0 .6.49 1.09 1.09 1.09s1.09-.49 1.09-1.09c.01-.61-.47-1.1-1.09-1.1z" fill="#2f2a38"/></g></g><g><g><path d="m21.25 23.04c0 1-.81 1.82-1.82 1.82-1 0-1.82-.82-1.82-1.82 0-1.01.82-1.83 1.82-1.83 1.01-.01 1.82.81 1.82 1.83z" fill="#fff"/></g><g><path d="m19.42 25.59c-1.41 0-2.55-1.14-2.55-2.55s1.14-2.56 2.55-2.56 2.55 1.15 2.55 2.56c.01 1.4-1.14 2.55-2.55 2.55zm0-3.66c-.6 0-1.09.49-1.09 1.1 0 .6.49 1.09 1.09 1.09s1.09-.49 1.09-1.09c.01-.61-.47-1.1-1.09-1.1z" fill="#2f2a38"/></g></g><g><g><path d="m50.68 41.88c-.4 0-.73-.33-.73-.73v-3.57c0-1.32-1.08-2.4-2.4-2.4h-11.17c-2.13 0-3.86-1.73-3.86-3.86v-3.01c0-.4.33-.73.73-.73s.73.33.73.73v3.01c0 1.32 1.08 2.4 2.4 2.4h11.17c2.13 0 3.86 1.73 3.86 3.86v3.57c0 .4-.33.73-.73.73z" fill="#2f2a38"/></g><g><path d="m10.88 41.88c-.4 0-.73-.33-.73-.73v-3.57c0-2.13 1.73-3.86 3.86-3.86h11.17c1.33 0 2.4-1.08 2.4-2.4v-3.01c0-.4.33-.73.73-.73s.73.33.73.73v3.01c0 2.13-1.73 3.86-3.86 3.86h-11.17c-1.32 0-2.4 1.08-2.4 2.4v3.57c0 .4-.33.73-.73.73z" fill="#2f2a38"/></g></g></g></svg>