<svg id="Icons" height="512" viewBox="0 0 60 60" width="512" xmlns="http://www.w3.org/2000/svg"><path d="m59 9v47a3 3 0 0 1 -3 3h-52a3 3 0 0 1 -3-3v-47l1-1h56z" fill="#3b437f"/><path d="m59 4v5h-58v-5a3 3 0 0 1 3-3h52a3 3 0 0 1 3 3z" fill="#c0dadc"/><g fill="#fff"><path d="m6 6h-1a1 1 0 0 1 0-2h1a1 1 0 0 1 0 2z"/><path d="m11 6h-1a1 1 0 0 1 0-2h1a1 1 0 0 1 0 2z"/><path d="m16 6h-1a1 1 0 0 1 0-2h1a1 1 0 0 1 0 2z"/></g><path d="m55 6h-6a1 1 0 0 1 0-2h6a1 1 0 0 1 0 2z" fill="#aac7c8"/><path d="m12 50a4 4 0 0 1 -4-4v-9a2 2 0 0 0 -2-2 1 1 0 0 1 0-2 2 2 0 0 0 2-2v-9a4 4 0 0 1 4-4 1 1 0 0 1 0 2 2 2 0 0 0 -2 2v9a3.99 3.99 0 0 1 -1.357 3 3.99 3.99 0 0 1 1.357 3v9a2 2 0 0 0 2 2 1 1 0 0 1 0 2z" fill="#5afeb7"/><path d="m48 50a1 1 0 0 1 0-2 2 2 0 0 0 2-2v-9a3.99 3.99 0 0 1 1.357-3 3.99 3.99 0 0 1 -1.357-3v-9a2 2 0 0 0 -2-2 1 1 0 0 1 0-2 4 4 0 0 1 4 4v9a2 2 0 0 0 2 2 1 1 0 0 1 0 2 2 2 0 0 0 -2 2v9a4 4 0 0 1 -4 4z" fill="#5afeb7"/><path d="m18 25a5.006 5.006 0 0 0 -5 5v8a5 5 0 0 0 10 0v-8a5.006 5.006 0 0 0 -5-5zm3 13a3 3 0 0 1 -6 0v-8a3 3 0 0 1 6 0z" fill="#fff"/><path d="m30 25a5.006 5.006 0 0 0 -5 5v8a5 5 0 0 0 10 0v-8a5.006 5.006 0 0 0 -5-5zm3 13a3 3 0 0 1 -6 0v-8a3 3 0 0 1 6 0z" fill="#fff"/><path d="m42 25h-4a1 1 0 0 0 -1 1v16a1 1 0 0 0 2 0v-6h3a5.006 5.006 0 0 0 5-5v-1a5.006 5.006 0 0 0 -5-5zm3 6a3 3 0 0 1 -3 3h-3v-7h3a3 3 0 0 1 3 3z" fill="#fff"/></svg>