<svg height="512" viewBox="0 0 60 60" width="512" xmlns="http://www.w3.org/2000/svg" id="fi_3813546"><g id="Page-1" fill="none" fill-rule="evenodd"><g id="062---Update-Protection-Software"><path id="Path" d="m48 17.068v17.12c0 6.131-5.333 13.774-17.5 17.707-.3233246.1030257-.6706754.1030257-.994 0-12.173-3.933-17.506-11.576-17.506-17.707v-17.12c-.0003238-.5806446.3222718-1.1132935.837-1.382l16.435-8.5c.4553959-.24107784 1.0006041-.24107784 1.456 0l16.435 8.5c.5147282.2687065.8373238.8013554.837 1.382z" fill="#60a917"></path><path id="Path" d="m47.163 15.686-16.435-8.5c-.4553959-.24107784-1.0006041-.24107784-1.456 0l-.772.4 15.663 8.106c.5128204.2677067.8350932.7975123.837 1.376v17.12c0 5.956-5.054 13.33-16.5 17.352.335.118.657.243 1 .355.3233246.1030257.6706754.1030257.994 0 12.173-3.933 17.506-11.576 17.506-17.707v-17.12c.0003238-.5806446-.3222718-1.1132935-.837-1.382z" fill="#549414"></path><path id="Path" d="m30.463 48.289c-.2988593.1100399-.6271407.1100399-.926 0-9.337-3.489-13.537-9.289-13.537-13.672v-15.583c-.0000106-.473012.2622481-.907029.681-1.127l12.728-6.679c.3701181-.1940049.8118819-.1940049 1.182 0l12.728 6.679c.4187519.219971.6810106.653988.681 1.127v15.583c0 4.383-4.2 10.183-13.537 13.672z" fill="#a4c400"></path><path id="Path" d="m27 34.972c-.530399.0009236-1.0392878-.2096138-1.414-.585l-2-2c-.7812068-.7809306-.7814306-2.0472932-.0005-2.8285s2.0472932-.7814306 2.8285-.0005l.586.586 6.586-6.586c.7812068-.7809306 2.0475694-.7807068 2.8285.0005s.7807068 2.0475694-.0005 2.8285l-8 8c-.3747122.3753862-.883601.5859236-1.414.585z" fill="#f5f5f5"></path><g fill="#000"><path id="Shape" d="m29.2 52.848c.5229389.1673408 1.0850611.1673408 1.608 0 13.427-4.342 18.192-12.766 18.192-18.66v-17.12c-.0002936-.9543734-.5314456-1.829348-1.378-2.27l-16.422-8.498c-.7454428-.39697851-1.6395572-.39697851-2.385 0l-16.444 8.5c-.8435255.4418796-1.371774 1.3157436-1.371 2.268v17.12c0 5.894 4.765 14.318 18.2 18.66zm-16.2-35.78c-.0024252-.209941.1136167-.4033441.3-.5l16.444-8.51c.0794813-.03948791.1672606-.05937542.256-.058.0947403.00009447.1880549.02308006.272.067l16.428 8.503c.1862181.0968316.3021924.2901221.3.5v17.12c0 5.223-4.4 12.746-16.809 16.755-.1237455.0384714-.2562545.0384714-.38 0-12.411-4.011-16.811-11.534-16.811-16.757z" fill-rule="nonzero"></path><path id="Shape" d="m29.187 49.226c.5246493.1920181 1.1003507.1920181 1.625 0 10.473-3.917 14.188-10.318 14.188-14.609v-15.583c.0013936-.8451552-.4672615-1.6209798-1.216-2.013l-12.728-6.679c-.6614714-.34606416-1.4505286-.34606416-2.112 0l-12.727 6.679c-.7492869.3915775-1.2184254 1.1675642-1.217 2.013v15.583c0 4.29 3.715 10.691 14.187 14.609zm5.106-24.96c.3951984-.379829 1.0198016-.379829 1.415 0 .3897159.3903851.3897159 1.0226149 0 1.413l-8 8c-.3950688.3791887-1.0189312.3791887-1.414 0l-2-2c-.2597729-.2512596-.3637612-.6231337-.2719978-.9726946.0917635-.3495608.3649986-.6224097.7146889-.7136787s.721417.0132453.9723089.2733733l.585.585c.3904999.3903819 1.0235001.3903819 1.414 0zm8.561-5.473c.0897268.0469002.1459792.1397551.146.241v15.583c0 3.8-3.729 9.025-12 12.378v-13.78l6.121-6.121c1.1711458-1.1714996 1.1711458-3.0705004 0-4.242-1.1873934-1.1330821-3.0556066-1.1330821-4.243 0l-1.878 1.878v-12.158zm-25.854.241c.0000208-.1012449.0562732-.1940998.146-.241l11.854-6.221v14.158l-2 2c-1.1995527-1.022209-2.9779648-.9712368-4.117.118-.562719.5626237-.8788593 1.3257625-.8788593 2.1215s.3161403 1.5588763.8788593 2.1215l2 2c1.1250312 1.1329327 2.9433546 1.1770453 4.122.1v11.809c-8.271-3.354-12-8.575-12-12.378z" fill-rule="nonzero"></path><path id="Path" d="m10 4c-.55228475 0-1 .44771525-1 1v4c0 .55228475.44771525 1 1 1h4c.5522847 0 1-.44771525 1-1s-.4477153-1-1-1h-1.32c10.0627798-7.92282051 24.2185366-8.00806142 34.376-.207.2833116.21775338.6612724.26782085.9915081.13134248.3302358-.13647836.5625759-.43876825.6095-.793.0469242-.35423174-.0986965-.7065891-.3820081-.92434248-11.0516261-8.49005661-26.4957137-8.24726022-37.275.586v-1.793c0-.26521649-.1053568-.5195704-.2928932-.70710678s-.4418903-.29289322-.7071068-.29289322z"></path><path id="Path" d="m6.792 49h-1.792c-.55228475 0-1 .4477153-1 1s.44771525 1 1 1h4c.55228475 0 1-.4477153 1-1v-4c0-.5522847-.44771525-1-1-1s-1 .4477153-1 1v1.319c-7.92311636-10.0625504-8.00876907-24.2183085-.208-34.376.2363852-.2814477.29932451-.6698855.16390771-1.0115769-.1354168-.3416915-.44736133-.5815579-.81237169-.6246646s-.72424905.1174948-.93553602.4182415c-8.49063292 11.0511644-8.24866529 26.4952455.584 37.275z"></path><path id="Path" d="m50 56c.5522847 0 1-.4477153 1-1v-4c0-.5522847-.4477153-1-1-1h-4c-.5522847 0-1 .4477153-1 1s.4477153 1 1 1h1.32c-10.0627798 7.9228205-24.2185366 8.0080614-34.376.207-.4379618-.3366175-1.0658824-.2544618-1.4025.1835-.3366175.4379618-.2544618 1.0658824.1835 1.4025 11.0516261 8.4900566 26.4957137 8.2472602 37.275-.586v1.793c0 .5522847.4477153 1 1 1z"></path><path id="Path" d="m55 11c.5522847 0 1-.4477153 1-1 0-.55228475-.4477153-1-1-1h-4c-.5522847 0-1 .44771525-1 1v4c0 .5522847.4477153 1 1 1s1-.4477153 1-1v-1.319c7.9231164 10.0625504 8.0087691 24.2183085.208 34.376-.2363852.2814477-.2993245.6698855-.1639077 1.0115769.1354168.3416915.4473613.5815579.8123717.6246646.3650103.0431067.724249-.1174948.935536-.4182415 8.4906329-11.0511644 8.2486653-26.4952455-.584-37.275z"></path></g></g></g></svg>